<svg xmlns="http://www.w3.org/2000/svg" viewBox="30 200 570 210" width="55" height="55">
  <style>path { fill: #9ca3af; }</style>
  <!-- All original paths from the hand-drawn arrow, white bg removed -->
  <path d="M0 0 C2.54296875 0.35546875 2.54296875 0.35546875 4.4296875 1.8671875 C5.02394531 2.58519531 5.61820313 3.30320313 6.23046875 4.04296875 C7.26300781 5.27853516 7.26300781 5.27853516 8.31640625 6.5390625 C11.12343142 10.08970311 13.88711178 13.67176948 16.62426758 17.27636719 C20.91598655 22.90767439 25.47257679 28.29317368 30.08691406 33.66113281 C31.61482817 35.43908786 33.13786458 37.22113566 34.66015625 39.00390625 C37.1817126 41.95505529 39.7094449 44.9008002 42.24169922 47.84277344 C43.3662224 49.15000527 44.48805133 50.45955389 45.609375 51.76953125 C48.86981358 55.5478471 52.26081093 59.10848509 55.82421875 62.6015625 C57.49717897 64.30874236 59.01444201 66.08139708 60.54296875 67.91796875 C66.32006266 74.59975298 72.99956503 80.44174434 79.54296875 86.35546875 C80.12498047 86.88221191 80.70699219 87.40895508 81.30664062 87.95166016 C112.32467599 115.80513873 150.85087209 137.43982417 192.54296875 143.35546875 C195.25724528 143.46984894 197.94574996 143.54275142 200.66015625 143.55859375 C201.43497345 143.56429382 202.20979065 143.5699939 203.00808716 143.5758667 C204.6469793 143.58528054 206.28589007 143.59183624 207.92480469 143.59570312 C210.37601037 143.6053044 212.82633812 143.63631735 215.27734375 143.66796875 C234.43065108 143.79758497 252.24567559 139.77849846 269.54296875 131.35546875 C270.52136719 130.89140625 271.49976563 130.42734375 272.5078125 129.94921875 C278.2363344 127.17347019 283.60464703 124.39591379 288.54296875 120.35546875 C288.54296875 119.69546875 288.54296875 119.03546875 288.54296875 118.35546875 C287.09093025 117.07857603 287.09093025 117.07857603 285.16796875 115.79296875 C269.22242357 104.17831239 256.84476698 89.77891818 249.98046875 71.16796875 C247.08237113 60.45702732 246.86857152 47.36340016 250.16796875 36.73046875 C250.90962589 34.91752908 251.70082494 33.12397076 252.54296875 31.35546875 C252.95546875 30.42734375 253.36796875 29.49921875 253.79296875 28.54296875 C257.9560293 20.02761762 263.84227511 12.87032209 272.1953125 8.2109375 C281.05096621 3.59634017 288.48568535 1.42847148 298.49560547 2.0859375 C307.06899603 3.21460709 315.15720567 8.07196089 321.65625 13.5859375 C328.71198659 20.20342958 333.59939138 27.89494184 336.85546875 37.04296875 C340.56162074 54.89988289 337.82670257 71.41181233 330.9597168 88.10400391 C326.87623428 97.49991711 321.03685528 105.25599555 314.4609375 113.04296875 C312.43709719 115.40137598 312.43709719 115.40137598 310.54296875 118.35546875 C311.08824219 118.525625 311.63351562 118.69578125 312.1953125 118.87109375 C316.06669512 120.11523039 319.80445458 121.42477949 323.48046875 123.16796875 C344.8112507 132.86377873 367.99792608 136.78637743 391.29296875 136.66796875 C392.03998047 136.66614594 392.78699219 136.66432312 393.55664062 136.66244507 C404.7920364 136.61634174 415.61201769 136.11354669 426.54296875 133.35546875 C427.27290039 133.17854492 428.00283203 133.00162109 428.75488281 132.81933594 C460.58632651 124.97994593 488.80475885 110.07361567 512.54296875 87.35546875 C513.49429688 86.45699219 514.445625 85.55851562 515.42578125 84.6328125 C521.93614362 78.33099935 527.30951477 71.7389389 532.54296875 64.35546875 C533.36861328 63.21078125 533.36861328 63.21078125 534.2109375 62.04296875 C535.33082015 60.48705336 536.43884768 58.92260834 537.54296875 57.35546875 C536.83011719 57.65582031 536.11726562 57.95617187 535.3828125 58.265625 C526.58595357 61.75832135 526.58595357 61.75832135 522.35546875 61.10546875 C520.96328125 60.73421875 520.96328125 60.73421875 519.54296875 60.35546875 C518.18857207 57.6466754 518.47795424 55.34613607 518.54296875 52.35546875 C523.0699414 49.32822937 527.889516 47.61536523 532.98046875 45.79296875 C534.23053711 45.33760742 534.23053711 45.33760742 535.50585938 44.87304688 C549.27590102 39.87664441 549.27590102 39.87664441 554.54296875 40.35546875 C555.20296875 41.01546875 555.86296875 41.67546875 556.54296875 42.35546875 C557.50174336 51.06903799 556.39699149 60.26136124 555.79296875 68.98046875 C555.70063965 70.56335693 555.70063965 70.56335693 555.60644531 72.17822266 C555.5287793 73.17772949 555.45111328 74.17723633 555.37109375 75.20703125 C555.30825195 76.10244629 555.24541016 76.99786133 555.18066406 77.92041016 C554.54296875 80.35546875 554.54296875 80.35546875 552.69042969 82.68896484 C551.98176758 83.23891113 551.27310547 83.78885742 550.54296875 84.35546875 C547.35546875 84.16796875 547.35546875 84.16796875 544.54296875 83.35546875 C544.21296875 83.02546875 543.88296875 82.69546875 543.54296875 82.35546875 C543.47070373 80.50259373 543.45915655 78.64712997 543.48046875 76.79296875 C543.48949219 75.78105469 543.49851562 74.76914062 543.5078125 73.7265625 C543.52521484 72.55287109 543.52521484 72.55287109 543.54296875 71.35546875 C542.68638672 72.44408203 542.68638672 72.44408203 541.8125 73.5546875 C539.69130696 76.17240766 537.49703666 78.67595181 535.23046875 81.16796875 C532.54419403 84.12374028 529.91455321 87.10226351 527.35546875 90.16796875 C503.28925334 117.60898678 469.6231837 135.51135277 434.54296875 144.35546875 C420.9813515 147.50188048 407.65239986 148.54225557 393.76879883 148.54077148 C391.50908066 148.54294128 389.24986562 148.56111033 386.99023438 148.58007812 C373.39195823 148.63385296 359.86441323 147.65376761 346.66796875 144.16796875 C345.84409668 143.9551123 345.02022461 143.74225586 344.17138672 143.52294922 C330.95312113 139.98382464 318.37333404 135.2220826 306.42578125 128.54296875 C303.68208716 127.19216452 303.68208716 127.19216452 301.07421875 127.38671875 C297.64716996 128.69830532 294.86888178 130.72354905 291.91796875 132.85546875 C266.84686247 150.25650556 237.95252524 156.74638836 207.79589844 156.65991211 C198.52327801 156.49230537 189.6218894 155.16036129 180.54296875 153.35546875 C179.79595703 153.21625 179.04894531 153.07703125 178.27929688 152.93359375 C144.97757505 146.69493641 113.48782113 129.96893256 87.31201172 108.78662109 C85.7460937 107.51979644 84.16329212 106.27390407 82.578125 105.03125 C71.19484112 95.98814195 60.83522239 85.72541722 50.54296875 75.48046875 C49.84929199 74.79146484 49.15561523 74.10246094 48.44091797 73.39257812 C44.50055381 69.4398498 40.74266801 65.38083805 37.09716797 61.15478516 C35.14186223 58.89110258 33.12490227 56.68695755 31.10546875 54.48046875 C27.44907264 50.42878657 24.00641805 46.25795778 20.62890625 41.97265625 C18.37435749 39.1439153 16.05843271 36.37405681 13.73046875 33.60546875 C8.18176608 26.97451138 2.83693265 20.19093628 -2.45703125 13.35546875 C-3.05257812 12.63875 -3.648125 11.92203125 -4.26171875 11.18359375 C-5.45703125 9.35546875 -5.45703125 9.35546875 -5.64453125 5.60546875 C-5.58265625 4.53296875 -5.52078125 3.46046875 -5.45703125 2.35546875 C-2.45703125 0.35546875 -2.45703125 0.35546875 0 0 Z" transform="translate(37.45703125,234.64453125)"/>
  <path style="fill:none;stroke:#9ca3af;stroke-width:6" d="M0 0 C2.46597445 1.19237986 4.71176838 2.48633104 6.984375 4.01171875 C8.345625 4.90890625 8.345625 4.90890625 9.734375 5.82421875 C16.10931777 12.02207977 20.96575398 19.56585541 23.234375 28.19921875 C25.53151406 40.43670503 23.91719102 52.81141144 19.04052734 64.21972656 C14.78302739 73.33981295 9.68978416 81.47691936 2.984375 89.01171875 C1.81678748 90.38593689 0.65003131 91.76086212 -0.515625 93.13671875 C-1.340625 94.08546875 -2.165625 95.03421875 -3.015625 96.01171875 C-7.56682856 94.50605742 -11.05467073 91.9606337 -14.765625 89.01171875 C-15.38252197 88.521875 -15.99941895 88.03203125 -16.63500977 87.52734375 C-28.65076237 77.78289017 -38.19584096 65.08909247 -43.265625 50.38671875 C-45.3257147 40.8166657 -44.52607991 31.25431024 -41.34375 22.0546875 C-37.96107681 14.30438629 -32.94828335 7.86609659 -26.015625 3.01171875 C-25.45746094 2.59921875 -24.89929688 2.18671875 -24.32421875 1.76171875 C-17.28417146 -2.61740354 -7.70128477 -2.52386664 0 0 Z" transform="translate(341.015625,249.98828125)"/>
  <path d="M0 0 C4.47528626 3.58022901 8.41324471 7.43596036 12.25 11.6875 C20.27699326 20.55958528 28.4969598 28.88785842 37.98046875 36.22265625 C38.64691406 36.80917969 39.31335938 37.39570313 40 38 C40 38.66 40 39.32 40 40 C40.58265625 40.26554687 41.1653125 40.53109375 41.765625 40.8046875 C44.06174228 42.03302996 45.80356018 43.40314939 47.75 45.125 C48.36359375 45.66382813 48.9771875 46.20265625 49.609375 46.7578125 C50.06828125 47.16773438 50.5271875 47.57765625 51 48 C50.34 48.66 49.68 49.32 49 50 C36.34353786 39.29798404 24.18442399 28.25998803 12.4375 16.5625 C11.6630957 15.79276855 10.88869141 15.02303711 10.09082031 14.22998047 C2.42065659 6.53788271 2.42065659 6.53788271 0 3 C0 2.01 0 1.02 0 0 Z" transform="translate(76,294)"/>
  <path d="M0 0 C2.69357659 2.5942473 4.98783072 5.23020711 7.1875 8.25 C13.22272283 16.08678189 20.65456921 21.79150419 29 27 C28.34 27.66 27.68 28.32 27 29 C16.81081734 22.72405416 7.11230758 14.7121067 0 5 C-0.71484375 2.73828125 -0.71484375 2.73828125 -1 1 C-0.67 0.67 -0.34 0.34 0 0 Z" transform="translate(306,317)"/>
  <path d="M0 0 C7.26689826 6.81271712 13.10518076 15.00626785 19 23 C18.34 23.66 17.68 24.32 17 25 C11.47060191 18.7906112 11.47060191 18.7906112 9.4375 15.375 C7.67008092 12.45491631 5.43800969 10.37705945 3 8 C1.1875 5.9375 1.1875 5.9375 0 4 C0 2.68 0 1.36 0 0 Z" transform="translate(46,243)"/>
  <path d="M0 0 C5.23801885 2.04965955 9.88612453 4.63818416 14.66796875 7.59765625 C16.74009752 8.84371023 18.82186668 9.95349457 21 11 C20.67 11.99 20.34 12.98 20 14 C15.11963459 12.32508169 11.00847052 9.63208039 6.6875 6.875 C5.94693359 6.40707031 5.20636719 5.93914062 4.44335938 5.45703125 C2.62658032 4.30835804 0.81296963 3.15467631 -1 2 C-0.67 1.34 -0.34 0.68 0 0 Z" transform="translate(140,352)"/>
  <path d="M0 0 C8.415 3.96 8.415 3.96 17 8 C16.34 8.66 15.68 9.32 15 10 C9.72 7.36 4.44 4.72 -1 2 C-0.67 1.34 -0.34 0.68 0 0 Z" transform="translate(161,354)"/>
  <path d="M0 0 C4.9723422 1.49170266 9.41845739 3.60457417 14 6 C13.67 6.66 13.34 7.32 13 8 C8.1725201 6.58707905 4.2837641 4.57025846 0 2 C0 1.34 0 0.68 0 0 Z" transform="translate(161,365)"/>
  <path d="M0 0 C2.125 0.9375 2.125 0.9375 4 2 C-0.43076923 4.09230769 -0.43076923 4.09230769 -3.3125 3.625 C-3.869375 3.41875 -4.42625 3.2125 -5 3 C-2 1 -2 1 0 0 Z" transform="translate(574,279)"/>
</svg>
